<svg version="1.1" id="mouse" xmlns="http://www.w3.org/2000/svg" xmlns:xlink="http://www.w3.org/1999/xlink" x="0px" y="0px"
	 viewBox="0 0 512 512" style="enable-background:new 0 0 512 512;" xml:space="preserve">

<path fill="#ffffff" class="st0" d="M284.2,37.5H256h-28.2c-59.7,0-108.3,48.6-108.3,108.3v55.5V357c0,64.8,52.7,117.4,117.4,117.4h38.2
	c64.8,0,117.4-52.7,117.4-117.4V201.4v-55.5C392.5,86.1,343.9,37.5,284.2,37.5z M365.2,357c0,49.7-40.4,90.1-90.1,90.1h-38.2
	c-49.7,0-90.1-40.4-90.1-90.1V215H223c7.5,0,13.7-6.1,13.7-13.7s-6.1-13.7-13.7-13.7h-76.2v-41.9c0-44.7,36.3-81,81-81h14.5v61.4
	c0,7.5,6.1,13.7,13.7,13.7s13.7-6.1,13.7-13.7V64.9h14.5c44.7,0,81,36.3,81,81v41.9h-75.8c-7.5,0-13.7,6.1-13.7,13.7
	s6.1,13.7,13.7,13.7h75.8V357z"/>
<path fill="#ffffff" class="st0" d="M256,256c-22.6,0-41-18.4-41-41v-54.6c0-22.6,18.4-41,41-41s41,18.4,41,41V215C297,237.6,278.6,256,256,256z
	 M256,146.8c-7.5,0-13.7,6.1-13.7,13.7V215c0,7.5,6.1,13.7,13.7,13.7c7.5,0,13.7-6.1,13.7-13.7v-54.6
	C269.7,152.9,263.5,146.8,256,146.8z"/>
</svg>
