<?xml version="1.0" encoding="utf-8"?>
<!-- Generator: Adobe Illustrator 24.0.3, SVG Export Plug-In . SVG Version: 6.00 Build 0)  -->
<svg version="1.1" id="mouse" xmlns="http://www.w3.org/2000/svg" xmlns:xlink="http://www.w3.org/1999/xlink" x="0px" y="0px"
	 viewBox="0 0 512 512" style="enable-background:new 0 0 512 512;" xml:space="preserve">
<style type="text/css">
	.st0{fill:#FFFFFF;}
</style>
<g>
	<g>
		<g>
			<path class="st0" d="M147.5,101.9c0-28.6,24.1-52.7,52.7-52.7S253,73.3,253,101.9V144c9-12,15.1-27.1,15.1-42.2
				c0-37.7-30.2-67.8-67.8-67.8s-67.7,30.1-67.7,67.8c0,16.6,6,31.6,15.1,42.2V101.9z"/>
			<path class="st0" d="M381,214.8c-9,0-16.6,3-22.6,7.5l0,0c0-21.1-16.6-37.7-37.7-37.7c-9,0-18.1,3-25.6,9
				c-6-15.1-19.6-24.1-34.6-24.1c-9,0-16.6,3-22.6,7.5v-75.3c0-21.1-16.6-37.7-37.7-37.7s-37.7,16.6-37.7,37.7v134.1
				c-30.1-27.1-63.3-48.2-84.4-27.1c-30.1,30.1,33.1,88.9,81.3,177.8c34.6,61.7,82.9,84.3,131,84.3c70.8,0,128-57.2,128-128v-90.4
				C418.6,231.4,402.1,214.8,381,214.8z M403.6,285.6v57.2c0,58.7-51.2,113-112.9,113c-57.2,0-90.4-31.6-117.5-75.3
				c-57.2-99.4-99.4-144.6-84.3-161.2c16.6-16.6,57.2,19.6,88.9,52.7V101.9c0-12,10.6-22.6,22.6-22.6s22.6,10.6,22.6,22.6V260h15.1
				v-52.7c0-12,10.6-22.6,22.6-22.6c12,0,22.6,10.6,22.6,22.6V245h15.1v-22.6c0-12,10.6-22.6,22.6-22.6s22.6,10.6,22.6,22.6V260
				h15.1v-7.5c0-12,10.6-22.6,22.6-22.6c12,0,22.6,10.6,22.6,22.6L403.6,285.6L403.6,285.6z"/>
		</g>
	</g>
</g>
</svg>
